<svg xmlns="http://www.w3.org/2000/svg" viewBox="-15 -15 130 130" width="64" height="64">
  <defs>
    <linearGradient id="statisStackGrad" x1="50" y1="20" x2="50" y2="80" gradientUnits="userSpaceOnUse">
      <stop offset="0%" stop-color="#FFB585"/>
      <stop offset="100%" stop-color="#A04211"/>
    </linearGradient>
  </defs>
  <g transform="rotate(45 71 71)">
    <rect x="20" y="20" width="60" height="60" rx="11" fill="#3A1808"/>
    <rect x="20" y="20" width="60" height="60" rx="11" fill="none" stroke="#0a0a0a" stroke-width="3"/>
  </g>
  <g transform="rotate(45 64 64)">
    <rect x="20" y="20" width="60" height="60" rx="11" fill="#5A2208"/>
    <rect x="20" y="20" width="60" height="60" rx="11" fill="none" stroke="#0a0a0a" stroke-width="3"/>
  </g>
  <g transform="rotate(45 57 57)">
    <rect x="20" y="20" width="60" height="60" rx="11" fill="#8A380F"/>
    <rect x="20" y="20" width="60" height="60" rx="11" fill="none" stroke="#0a0a0a" stroke-width="3"/>
  </g>
  <g transform="rotate(45 50 50)">
    <rect x="20" y="20" width="60" height="60" rx="11" fill="url(#statisStackGrad)"/>
    <rect x="20" y="20" width="60" height="60" rx="11" fill="none" stroke="#0a0a0a" stroke-width="3"/>
  </g>
  <g transform="rotate(45 50 50)">
    <rect x="36" y="36" width="28" height="28" rx="6" fill="#FFE4D0" opacity="0.92"/>
  </g>
</svg>
